<svg xmlns="http://www.w3.org/2000/svg" viewBox="0 0 100 100">
  <rect width="100" height="100" fill="#550022"/>
  <path fill-rule="evenodd" fill="white" d="
    M 27,86 C 16,75 13,48 17,30 C 21,12 35,6 47,10 C 55,13 58,24 56,37
    C 54,46 48,52 42,55 C 50,58 61,53 67,43 C 73,33 72,17 81,13
    C 90,9 97,22 94,41 C 91,58 80,72 67,80 C 55,88 39,93 27,86 Z
    M 33,27 C 25,33 23,56 32,68 C 38,76 50,74 53,61
    C 56,48 50,32 40,24 C 37,21 37,22 33,27 Z
    M 65,28 C 57,34 55,53 62,64 C 67,72 79,70 81,58
    C 83,47 78,33 71,26 C 68,22 68,24 65,28 Z
  "/>
</svg>
